<svg width="200" height="200" viewBox="0 0 200 200" fill="none" xmlns="http://www.w3.org/2000/svg" role="img" aria-label="MÜDEK PÇ Ölçüm Sistemi">
  <defs>
    <linearGradient id="bg" x1="18" y1="18" x2="182" y2="182" gradientUnits="userSpaceOnUse">
      <stop stop-color="#2B3A8C"/>
      <stop offset="1" stop-color="#18245F"/>
    </linearGradient>
  </defs>

  <!-- Badge -->
  <rect x="14" y="14" width="172" height="172" rx="42" fill="url(#bg)"/>

  <!-- Document card -->
  <path d="M62 42H118L142 66V158C142 163.523 137.523 168 132 168H62C56.477 168 52 163.523 52 158V52C52 46.477 56.477 42 62 42Z" fill="white" fill-opacity="0.97"/>
  <!-- Folded corner fill -->
  <path d="M118 42V61C118 63.761 120.239 66 123 66H142Z" fill="#D9E6FF"/>

  <!-- PO matrix — 4 cols × 3 rows, each cell 13×13, gap 7, centered -->
  <!-- Total width: 4×13 + 3×7 = 73, start x = (200-73)/2 = 63.5 ≈ 64 -->
  <!-- Row y: 86, 106, 126 -->

  <!-- Row 1 -->
  <rect x="64"  y="86" width="13" height="13" rx="3.5" fill="#0F766E"/>
  <rect x="84"  y="86" width="13" height="13" rx="3.5" fill="#0F766E"/>
  <rect x="104" y="86" width="13" height="13" rx="3.5" fill="#B8860B"/>
  <rect x="124" y="86" width="13" height="13" rx="3.5" fill="#0F766E"/>

  <!-- Row 2 -->
  <rect x="64"  y="106" width="13" height="13" rx="3.5" fill="#0F766E"/>
  <rect x="84"  y="106" width="13" height="13" rx="3.5" fill="#B4490F"/>
  <rect x="104" y="106" width="13" height="13" rx="3.5" fill="#0F766E"/>
  <rect x="124" y="106" width="13" height="13" rx="3.5" fill="#0F766E"/>

  <!-- Row 3 -->
  <rect x="64"  y="126" width="13" height="13" rx="3.5" fill="#B8860B"/>
  <rect x="84"  y="126" width="13" height="13" rx="3.5" fill="#0F766E"/>
  <rect x="104" y="126" width="13" height="13" rx="3.5" fill="#0F766E"/>

  <!-- Completion checkmark (PO-11 slot) -->
  <path d="M125 133L128.5 136.5L135.5 128" stroke="#0F766E" stroke-width="3.5" stroke-linecap="round" stroke-linejoin="round"/>

  <!-- Attainment threshold line -->
  <line x1="64"  y1="152" x2="136" y2="152" stroke="#2B3A8C" stroke-width="3.5" stroke-linecap="round" opacity="0.18"/>
  <line x1="64"  y1="152" x2="116" y2="152" stroke="#0F766E" stroke-width="3.5" stroke-linecap="round"/>
  <line x1="116" y1="145" x2="116" y2="159"  stroke="#0F766E" stroke-width="3.5" stroke-linecap="round"/>
</svg>
